# xmcd CD database file
#
# Track frame offsets:
#	150
#	18992
#	30862
#	46753
#	59941
#	72972
#	86230
#	104211
#	122433
#	134727
#	148366
#	160600
#
# Disc length: 2333 seconds
#
# Revision: 0
# Processed by: cddbd v1.5.2PL0 Copyright (c) Steve Scherf et al.
# Submitted via: CDex 1.51
#
DISCID=b0091b0c
DTITLE=Ann Pascoe - The Best Of
DYEAR=2008
DGENRE=Country
TTITLE0=Land Of The Long White Cloud
TTITLE1=It Ain't That Way
TTITLE2=Broken Hearts Will Slowly Mend
TTITLE3=Cryin' Fortheir Mamas
TTITLE4=Don't Touch Me
TTITLE5=Treat Me Like A Lady
TTITLE6=Drop Of A Tear
TTITLE7=Winds Of October
TTITLE8=Misty Morning Memories
TTITLE9=On The Menu
TTITLE10=I'm Doing Find
TTITLE11=Nobody Likes A Smart Ass
EXTD=YEAR: 2008
EXTT0=
EXTT1=
EXTT2=
EXTT3=
EXTT4=
EXTT5=
EXTT6=
EXTT7=
EXTT8=
EXTT9=
EXTT10=
EXTT11=
PLAYORDER=
